<mxfile host="65bd71144e">
    <diagram id="H6XStnrh8CHFc-sI60L4" name="G4.日報入力画面">
        <mxGraphModel dx="1092" dy="710" grid="1" gridSize="10" guides="1" tooltips="1" connect="1" arrows="1" fold="1" page="1" pageScale="1" pageWidth="1169" pageHeight="827" math="0" shadow="0">
            <root>
                <mxCell id="0"/>
                <mxCell id="1" parent="0"/>
                <mxCell id="Yko3zLSW0iGbZCUaQ6S2-1" value="G4．日報入力画面（利用者専用&lt;span style=&quot;font-family: monospace; font-size: 0px; text-align: start; text-wrap-mode: nowrap;&quot;&gt;%3CmxGraphModel%3E%3Croot%3E%3CmxCell%20id%3D%220%22%2F%3E%3CmxCell%20id%3D%221%22%20parent%3D%220%22%2F%3E%3CmxCell%20id%3D%222%22%20value%3D%22%EF%BC%91%EF%BC%8E%E3%83%88%E3%83%83%E3%83%97%E7%94%BB%E9%9D%A2%22%20style%3D%22text%3Bhtml%3D1%3Balign%3Dcenter%3BverticalAlign%3Dmiddle%3BwhiteSpace%3Dwrap%3Brounded%3D0%3BfillColor%3D%23d5e8d4%3BstrokeColor%3D%2382b366%3B%22%20vertex%3D%221%22%20parent%3D%221%22%3E%3CmxGeometry%20x%3D%2210%22%20y%3D%2240%22%20width%3D%22110%22%20height%3D%2230%22%20as%3D%22geometry%22%2F%3E%3C%2FmxCell%3E%3C%2Froot%3E%3C%2FmxGraphModel%3E&lt;/span&gt;）" style="text;html=1;align=center;verticalAlign=middle;whiteSpace=wrap;rounded=0;fillColor=#d5e8d4;strokeColor=#82b366;" parent="1" vertex="1">
                    <mxGeometry x="40" y="40" width="250" height="30" as="geometry"/>
                </mxCell>
                <mxCell id="Yko3zLSW0iGbZCUaQ6S2-2" value="" style="rounded=0;whiteSpace=wrap;html=1;" parent="1" vertex="1">
                    <mxGeometry x="45" y="80" width="515" height="230" as="geometry"/>
                </mxCell>
                <mxCell id="Yko3zLSW0iGbZCUaQ6S2-3" value="業務日報アプリ" style="text;html=1;align=center;verticalAlign=middle;whiteSpace=wrap;rounded=0;fontStyle=1" parent="1" vertex="1">
                    <mxGeometry x="240" y="80" width="125" height="30" as="geometry"/>
                </mxCell>
                <mxCell id="Yko3zLSW0iGbZCUaQ6S2-4" value="&lt;u&gt;業務日報　入力画面&lt;/u&gt;" style="rounded=0;whiteSpace=wrap;html=1;verticalAlign=top;container=0;" parent="1" vertex="1">
                    <mxGeometry x="55" y="110" width="495" height="190" as="geometry"/>
                </mxCell>
                <mxCell id="Yko3zLSW0iGbZCUaQ6S2-5" value="保存" style="rounded=1;whiteSpace=wrap;html=1;fillColor=#dae8fc;strokeColor=#6c8ebf;" parent="1" vertex="1">
                    <mxGeometry x="492.5" y="116.5" width="50" height="20" as="geometry"/>
                </mxCell>
                <mxCell id="Yko3zLSW0iGbZCUaQ6S2-6" value="" style="shape=image;imageAspect=0;aspect=fixed;verticalLabelPosition=bottom;verticalAlign=top;image=data:image/jpeg,/9j/4AAQSkZJRgABAQEAYABgAAD/4QAiRXhpZgAATU0AKgAAAAgAAQESAAMAAAABAAEAAAAAAAD/2wBDAAIBAQIBAQICAgICAgICAwUDAwMDAwYEBAMFBwYHBwcGBwcICQsJCAgKCAcHCg0KCgsMDAwMBwkODw0MDgsMDAz/2wBDAQICAgMDAwYDAwYMCAcIDAwMDAwMDAwMDAwMDAwMDAwMDAwMDAwMDAwMDAwMDAwMDAwMDAwMDAwMDAwMDAwMDAz/wAARCACZAf4DASIAAhEBAxEB/8QAHwAAAQUBAQEBAQEAAAAAAAAAAAECAwQFBgcICQoL/8QAtRAAAgEDAwIEAwUFBAQAAAF9AQIDAAQRBRIhMUEGE1FhByJxFDKBkaEII0KxwRVS0fAkM2JyggkKFhcYGRolJicoKSo0NTY3ODk6Q0RFRkdISUpTVFVWV1hZWmNkZWZnaGlqc3R1dnd4eXqDhIWGh4iJipKTlJWWl5iZmqKjpKWmp6ipqrKztLW2t7i5usLDxMXGx8jJytLT1NXW19jZ2uHi4+Tl5ufo6erx8vP09fb3+Pn6/8QAHwEAAwEBAQEBAQEBAQAAAAAAAAECAwQFBgcICQoL/8QAtREAAgECBAQDBAcFBAQAAQJ3AAECAxEEBSExBhJBUQdhcRMiMoEIFEKRobHBCSMzUvAVYnLRChYkNOEl8RcYGRomJygpKjU2Nzg5OkNERUZHSElKU1RVVldYWVpjZGVmZ2hpanN0dXZ3eHl6goOEhYaHiImKkpOUlZaXmJmaoqOkpaanqKmqsrO0tba3uLm6wsPExcbHyMnK0tPU1dbX2Nna4uPk5ebn6Onq8vP09fb3+Pn6/9oADAMBAAIRAxEAPwD9VPDXjD9oD4y/H/426X4O8dfB3wn4f+Hfi608O20Gs/DrUtbvLsv4d0bUnmeeLXLRB8+osgQRcCIEsSeOo/4Vz+1N/wBFk/Z//wDDN6v/APNPVH9mCZ7f4x/thSRs0ckfxLtmVlOGUjwL4VwQa+S/2VfBupeP/wBlX4d+INX+CP7eHinVta8L6df3mt2X7QjW9rq08lrG73UUTeMoWjjkYl1VoYyAwBRCNozlUtGcntBJv/t7m+X2Xu1+dq5dF53/AAt/mfYX/Cuf2pv+iyfs/wD/AIZvV/8A5p6P+Fc/tTf9Fk/Z/wD/AAzer/8AzT18w+OPjP4u8b/8Es/2VfCs2m+IvE7fFq08E2vjbxBqU80yW+nXNzpsNz9oumYme5upp44jGHMkkUl0+5dm+nePPHfx4+O3iP4NX7fE74Rx3Wi/GG58O3GnzfCXUbG70fUrTTtWjk+0KPEk6yRvCDJGEZd6XMEofb8jdMqTVV0+inyX9HBN6X0TnFeuhL0g5PpFy+6MpJa21ag33trY+nP+Fc/tTf8ARZP2f/8Awzer/wDzT0f8K5/am/6LJ+z/AP8Ahm9X/wDmnr6AXO3nr3wKKyA+f/8AhXP7U3/RZP2f/wDwzer/APzT0f8ACuf2pv8Aosn7P/8A4ZvV/wD5p6+gKKAPn/8A4Vz+1N/0WT9n/wD8M3q//wA09H/Cuf2pv+iyfs//APhm9X/+aevoCigD5/8A+Fc/tTf9Fk/Z/wD/AAzer/8AzT0f8K5/am/6LJ+z/wD+Gb1f/wCaevoCigD46/bA8Q/tSfs4fslfFL4iSfFH4A62ngPwjq3iJtOX4Savam/FnZy3BhEv/CSP5e/y9u/Y+3dna2MH0X/hXP7U3/RZP2f/APwzer//ADT0f8FYv+UWX7S3/ZKvFH/pouq+gKAPn/8A4Vz+1N/0WT9n/wD8M3q//wA09H/Cuf2pv+iyfs//APhm9X/+aevoCigD5/8A+Fc/tTf9Fk/Z/wD/AAzer/8AzT0f8K5/am/6LJ+z/wD+Gb1f/wCaevoCigD5/wD+Fc/tTf8ARZP2f/8Awzer/wDzT0f8K5/am/6LJ+z/AP8Ahm9X/wDmnr6AooA+f/8AhXP7U3/RZP2f/wDwzer/APzT0f8ACuf2pv8Aosn7P/8A4ZvV/wD5p6+gKKAPn/8A4Vz+1N/0WT9n/wD8M3q//wA09H/Cuf2pv+iyfs//APhm9X/+aevoCigD5/8A+Fc/tTf9Fk/Z/wD/AAzer/8AzT1514m8Q/tSaH+1r4J+Hf8AwtH4AzP4o8I+IfEQ1H/hUmrqLUadeaJbmHyv+EkO/wA3+1A2/euz7ORtfzMp9i18/wDxHOP+Cpvwb/7JV48/9O/gygA/4Vz+1N/0WT9n/wD8M3q//wA09H/Cuf2pv+iyfs//APhm9X/+aevjT47ftFfFPxld/tIfEHQTofg3Xpbi2+GPhTwn4s8I3Wqar4is20wXtkkEcOoWjWEtxJe3t1O8yTNDaxxNLHF9klB6H9lj4wfE3Xf+CP8Aq114m+IHgHR5PA3gyw0W60q18OXnhrVPC0tvBbk/ab+TxPZo6zWZjkguUutPVkuIpt6qTDWcanNSqVP5FF/KSk9eqslG+l05WaWnNpOny1adP+dtf+AuKfk1dys07NRum7tR+qv+Fc/tTf8ARZP2f/8Awzer/wDzT0f8K5/am/6LJ+z/AP8Ahm9X/wDmnr8ufjH8Z/FGr6n8Lprf4reJPsV4miWsptPi3No9pqVsz3UksFu8nj6KO7unSWANJDfalIxVMywALG/6q/8ABNfW9Q8RfsL/AA3vNV1LVtY1CTSyst7ql9LfXlxtlkUGWeVnklfAALOzMcck1ty25vKUo+vLZ39PeXzT7JvnjU5uW32oqX3tq3/krfo0+rSof8K5/am/6LJ+z/8A+Gb1f/5p6P8AhXP7U3/RZP2f/wDwzer/APzT19AUVJofP/8Awrn9qb/osn7P/wD4ZvV//mno/wCFc/tTf9Fk/Z//APDN6v8A/NPX0BRQB8//APCuf2pv+iyfs/8A/hm9X/8Amno/4Vz+1N/0WT9n/wD8M3q//wA09fQFFAHz/wD8K5/am/6LJ+z/AP8Ahm9X/wDmno/4Vz+1N/0WT9n/AP8ADN6v/wDNPX0BRQB8dfsueIf2pPjz8NNT1xPij8AdIWx8XeJvDvkH4SavceYdL17UNMM27/hJEx5pszLswdnmbNz7d7ei/wDCuf2pv+iyfs//APhm9X/+aej/AIJp/wDJuviP/sqvxH/9TfXa+gKAPn//AIVz+1N/0WT9n/8A8M3q/wD809H/AArn9qb/AKLJ+z//AOGb1f8A+aevoCigD5//AOFc/tTf9Fk/Z/8A/DN6v/8ANPR/wrn9qb/osn7P/wD4ZvV//mnr6AooA+f/APhXP7U3/RZP2f8A/wAM3q//AM09H/Cuf2pv+iyfs/8A/hm9X/8Amnr6AooA+f8A/hXP7U3/AEWT9n//AMM3q/8A809H/Cuf2pv+iyfs/wD/AIZvV/8A5p6+gKKAPn//AIVz+1N/0WT9n/8A8M3q/wD809H/AArn9qb/AKLJ+z//AOGb1f8A+aevoCigD5I+Pnij9pL9nvwz4b8Q658Rvgf4m0W68ceFPD99p1j8L9U0u6lh1TxDp2mO8Vw/iC4WN41uzIC0LglACOcj6o+z6p/z+WH/AIBv/wDHa8O/4KWf8m6+HP8Asqvw4/8AU30KvoCgCh9n1T/n8sP/AADf/wCO0fZ9U/5/LD/wDf8A+O1fooAofZ9U/wCfyw/8A3/+O0fZ9U/5/LD/AMA3/wDjtX6KAKH2fVP+fyw/8A3/APjtH2fVP+fyw/8AAN//AI7V+igCh9n1T/n8sP8AwDf/AOO0fZ9U/wCfyw/8A3/+O1fooAofZ9U/5/LD/wAA3/8AjtH2fVP+fyw/8A3/APjtX6KAKH2fVP8An8sP/AN//jtUoINR/wCEiuv9Kst/2aHJ+ytgjdLjjzPr37jpjncqhb/8jPef9esH/oc1AHg37J1h/avx0/a7td3l/afifaRbsZ27vA3hUZx+Nc/8GP8AgnV49+D3wZ8LeD7X9q744x2vhjR7XSIls9C8HRWypBCsQEaTaJNKqYXgSTSuBgNI5yx5D4R/sR/A347/ALUX7VniD4jfCH4T+MtQ0v4kWNpHqXiTwrp+ozWlqngrwxL5QlniYpErySvtBCgyOcZJJ63Tv2DP2LdZ8YaBoVj8Bf2dL/UPFOizeI9J+y/DzSp7fUNPhe2R7mOdLYxFM3dvj58sJQVBAYieVS5ofzWuu9lJr7lzv0v0WjctFfzt+Cf42/DudfoP7EJ0T9jL4T/CM+KWuD8MJPC0h1dtNCnVP7FurS45hEmIvP8Asu3h28vzM4fbgz/Ev9kvWvHf7TXhLxdZa54H0HwjoOux+KdT0y18IONd1/U49OudPjln1MXqxmNYZolCtZu4W3VRIFxt8H/aJ+Dv7C/7NnhPwXruo/szfC/xVo/j6/isNIvfBnwVt/E9vKZCoWRpLGylUKdw2qCZJfm8pJCrAV/2avhL+xH+1TbfDmXw3+yn8N7Bfid4bv8AxRpY134PadpTwW1m2npKsiz26sxY6lB5ckIlgkCSFZSApbaNSVWUpx1am5P/ABcqbf3RTtsmk9xS91ckvtRt6xfMvx95d9z70or4R8W/Dv8A4J3/AA7+K/iDwb4m+D/7PPhPUvCsTy6pfa/8KrTSdDtggtC6/wBq3Fklg8ii/s8xpcM4NzGCMnFYvwbj/wCCbPx2+Gni3xT4d+G/7KOoWvgWz1bVNcsrPwn4e1LUrHT9Onlhmvza2iTSm3cRCWJ1UmSOWIgZcLWa1jzLa17+W9/S2tyuV3tbW9vn29fI/Qiivz5TR/8AgnudNupn/Zy8D291aX9npraVcfs3ahDrE093FczW4i099HF3Mrx2dy3mRxMgELZYV658Ff2B/wBjf9oP4dWvirwv+zh8EZ9HvJ7m2X+0PhPZ6VdRTW88lvPFLbXVnFPDIk0UiMskasCp4quV6+W/ldXX4O/pqRzKyffbz1a0+aa9U+x9VUV8/wD/AA6d/ZZ/6Np/Z/8A/DeaR/8AI9H/AA6d/ZZ/6Np/Z/8A/DeaR/8AI9SM+gKK+f8A/h07+yz/ANG0/s//APhvNI/+R6P+HTv7LP8A0bT+z/8A+G80j/5HoAP+CsX/ACiy/aW/7JV4o/8ATRdV9AV8If8ABTX/AIJlfs2+Av8Agm3+0Hruhfs9/A/Rdb0X4a+I7/T9QsPAul211YXEWl3LxTRSpAHjkR1VldSCpAIIIr2//h07+yz/ANG0/s//APhvNI/+R6APoCivn/8A4dO/ss/9G0/s/wD/AIbzSP8A5Ho/4dO/ss/9G0/s/wD/AIbzSP8A5HoA+gKK+f8A/h07+yz/ANG0/s//APhvNI/+R6P+HTv7LP8A0bT+z/8A+G80j/5HoA+gKK+f/wDh07+yz/0bT+z/AP8AhvNI/wDkej/h07+yz/0bT+z/AP8AhvNI/wDkegD6Aor5/wD+HTv7LP8A0bT+z/8A+G80j/5Ho/4dO/ss/wDRtP7P/wD4bzSP/kegD6Aor5//AOHTv7LP/RtP7P8A/wCG80j/AOR6P+HTv7LP/RtP7P8A/wCG80j/AOR6APoCvn/4jf8AKU34N/8AZKvHn/p38GUf8Onf2Wf+jaf2f/8Aw3mkf/I9eIePv+CZX7Ntn/wUk+E+hQ/s9/A+LRNS+GvjS/u9PTwLpa2t1cQap4TSCaSIQbGkjS5uFRyCVE8oBAdsgHsfjP8A4Jr+DfiV8Tfil4s1681abWviJ5cdjfabqN/o994bhFjZW0sdvc2tzHIvnNYxPKYzEZUCxPvRcHMh/wCCZWk+CP2YpvB3gXxd4n8M+OJfDNn4ZbxrPrmtX17NDbzpOFkP9ox3PlBhMsSR3UbW0d1MkEkSuwbzjx98Hv2BfhxHGt78Afg/qGoSa7P4aOk6H8Ef7b1iHUIYXuHhksLPTpbqP/R0M6u8QR4WjlVmjkRmgsfhH+wnrPwZ8deOLH9mPwFdaf8ADiQQa7pr/s+zWmuW0rRRTKi6bcaZHduGjmifesRjCMXZlRWZcm4QpT6Rsr+ln22vzu9vi5le+holOdSC3lfT1vH72nBWvtbS2pveDP8Agj/Zt8Jb628feOtW+IXxG3TnT/E1xf6/Y28MTw20cdpdwQ6x9q1G0VrWJ3hu72Qy45YH5q+j/wBlb4ITfs2/s8eE/A1xq0evXXhyxW2n1GOzNnHeS5LPIsJkkMalmOEMjlRgFmPJ+GfhBrH7Bfxu8L61q2j/ALJPhezt9D1rw/odwNZ+A9tpAebWZNNjtWSS6tY4mCtqcBdd/meWrSokkTQyS+rfHr9mf9hf9mfxf4Z0Pxl+z58F7HUPF0gj08Wfwbi1OFc3Ntah7ia1sJYrWMz3dtGJLho0LTKN3XHTUjJO0urt6uybt3bTTb3e7u0c9PlcVKOyX3Lf7tdF0vpa59oUV+evw/m/4Jl/FD483Xw60Pwf+xnqWvpFYGya30nwrNDrVxdy3ESWdoUy81yjQDfEq5UTwYzvwLU/h3/gnnZ+K9X0i4+AfwrtH0SXWbe4v7n4Bzw6TLLpCXD6jHBfvpYtLh4FtLnKwyuzGFgoYjFZvRcz2s38lu/Rdextyvm5ba3S+b2Xq+i6n6AUV8Y/s+/sufsRftO6lq9l4V/Zr+FsN9odta3t3a+IPgYfDc4t7ozCCaOPUtNt2ljc28wDxhlzGQSDXp3/AA6d/ZZ/6Np/Z/8A/DeaR/8AI9VKLi7SVjOMk9UfQFFfP/8Aw6d/ZZ/6Np/Z/wD/AA3mkf8AyPR/w6d/ZZ/6Np/Z/wD/AA3mkf8AyPUlH0BRXz//AMOnf2Wf+jaf2f8A/wAN5pH/AMj0f8Onf2Wf+jaf2f8A/wAN5pH/AMj0AH/BNP8A5N18R/8AZVfiP/6m+u19AV8If8E+f+CZX7NvjT4Da/eax+z38D9WvIfiV4+sI57zwLpc8iW9t4x1m3t4QzQEiOKCKKJEHCRxoqgKoA9v/wCHTv7LP/RtP7P/AP4bzSP/AJHoA+gKK+f/APh07+yz/wBG0/s//wDhvNI/+R6P+HTv7LP/AEbT+z//AOG80j/5HoA+gKK+f/8Ah07+yz/0bT+z/wD+G80j/wCR6P8Ah07+yz/0bT+z/wD+G80j/wCR6APoCivn/wD4dO/ss/8ARtP7P/8A4bzSP/kej/h07+yz/wBG0/s//wDhvNI/+R6APoCivn//AIdO/ss/9G0/s/8A/hvNI/8Akej/AIdO/ss/9G0/s/8A/hvNI/8AkegD6Aor5/8A+HTv7LP/AEbT+z//AOG80j/5Ho/4dO/ss/8ARtP7P/8A4bzSP/kegA/4KWf8m6+HP+yq/Dj/ANTfQq+gK+Hv23/+CeP7P/wV+Ffg/wATeDfgb8HfCXiTTvip8PVtNV0bwZpthfWok8Z6LFIEmihV13xu6NgjKuynIJFfaX/CLaX/ANA2w/8AAdP8KAL9FUP+EW0v/oG2H/gOn+FH/CLaX/0DbD/wHT/CgC/RVD/hFtL/AOgbYf8AgOn+FH/CLaX/ANA2w/8AAdP8KAL9FUP+EW0v/oG2H/gOn+FH/CLaX/0DbD/wHT/CgC/RVD/hFtL/AOgbYf8AgOn+FH/CLaX/ANA2w/8AAdP8KAL9FUP+EW0v/oG2H/gOn+FH/CLaX/0DbD/wHT/CgC/VC3/5Ge8/69YP/Q5qP+EW0v8A6Bth/wCA6f4VSg8N6cfEV1H/AGfZbFtoWC+QuAS0uTjHfA/IUAfK9t8TYfgr4X/b/wDGNxp8mq2/hTxVNq8tklyLVrtbf4eeGZTEJSjiMsExvKNtzna2MH5N8P8AxS+Cvw9/aj+FWk6H/wAFEmtfC/hz4a6tpFrqp8V/D2Y6KkdzoqQad5raUYj5kcbN++Vpm+yZVwBKG+lfh/8AFzWtJ/aJ/a48Mj9nv4jfFrw9r3xCs49RbTLjwwdNkSXwT4Yiks54tS1W2eQmMAsBE8TJMo3E71X2CP8AbE+IcUaqv7Jvx+VVGABq/gcAD/woaVNctT2n4d/dnHX053b5rZsqo1KEY9r/AIuD/wDbdfl1St+a3/BRrw/4Z+Nv/BJr4WXHg/QdR8Z+FfAtl4p0XRtX+zt4nintbC4Onx6hJLa+FtUsgbhLYTrNnTtgciKdl3sufoH7IngW58A6BfSfDPQ9P8RfC/SjPLPfeF/sl9ZXWr+MNMfTgi3Gg6JJbuv2bVfJii0+JY0uH2M4nJb7o+Jug+F/jXb6fD4y/wCCdvizxbFpUt1PZJrWl/Dm/WzkupTPcvGJdcbY00pMkhXBdyWbJ5qLwp4U8I+A7HR7XQ/+Cc/ijRbbw7q39v6VFY6T8OLePTNR2ov22BU1wCK42xRDzUw+I0GflGLoyUajqvdtv71y36aqOqtb3kvUitecFC+i/wA2/Pe/K27uzb30PmD9pbxZpWnf8FHvip/xW93rV9oTa3qN/wCDrfxve+FT4ftfsHg//iZPe6FZza1bRyASF3bzLcpatkRIJnqG1+CXiT4cfDT9sawn0mPRvBunfBK81fTbTTfjx4o8c6XHcapaatPLcx2+owRQTtdFHleZxujZFKeZ9olZfvz/AIbI+Iv/AEad+0B/4N/BH/zQ1w/h/wAWx+EtM8XWWlfsG/EjTLP4gSzT+KILSH4ewxeJJJgyzPequvAXLSB3DGXcWDsDnJqIRSoqk+kFH1suX11Xm7WtqnpvTqctaNXop81vnzadNHfpre+jV3+ePxA/ZW8DfCr41a58FYPAuvan4Q1D4jeDtO1DxHF4c0y2tI7uazjjhkNjbeCH8MsqLrr7kvbn7RI0MRBU+UG/T7/glp8NbL4M/sg2/hHTZPN0/wAM+LPFWl2z/Y7Wz3Rw+IdRjU+TaQw20XCj5IIY416KiqAo8x8c+FfCXxO+I8njLxL/AME5/FHiHxdMYzJrmp6T8OLvUn8tFjjzcSa4ZDsRVVctwqgDAAFdx8Mvjrr3wV8EWPhnwb+xX8YvCXhvSwy2ek6LceArCxtAzs7COGLX1RMuzMdoGSxPUmto1P3TjL4m02+9oxivS1n63s9kcsadlCPSKS+fvOX3uV/LpufT1FfP/wDw2R8Rf+jTv2gP/Bv4I/8Amho/4bI+Iv8A0ad+0B/4N/BH/wA0NZGh9AUV8/8A/DZHxF/6NO/aA/8ABv4I/wDmho/4bI+Iv/Rp37QH/g38Ef8AzQ0AH/BWL/lFl+0t/wBkq8Uf+mi6r6Ar4Q/4Ka/tX+PPEf8AwTb/AGg9PvP2ZPjhoNnffDXxHbz6nf6p4Pe105H0u5Vp5Vg12WYxxglmEUckhCnajNhT7f8A8NkfEX/o079oD/wb+CP/AJoaAPoCivn/AP4bI+Iv/Rp37QH/AIN/BH/zQ0f8NkfEX/o079oD/wAG/gj/AOaGgD6Aor5//wCGyPiL/wBGnftAf+DfwR/80NH/AA2R8Rf+jTv2gP8Awb+CP/mhoA+gKK+f/wDhsj4i/wDRp37QH/g38Ef/ADQ0f8NkfEX/AKNO/aA/8G/gj/5oaAPoCivn/wD4bI+Iv/Rp37QH/g38Ef8AzQ0f8NkfEX/o079oD/wb+CP/AJoaAPoCivn/AP4bI+Iv/Rp37QH/AIN/BH/zQ0f8NkfEX/o079oD/wAG/gj/AOaGgD6Ar5/+I3/KU34N/wDZKvHn/p38GUf8NkfEX/o079oD/wAG/gj/AOaGvEPH37V/jyf/AIKSfCfUG/Zk+OEN5a/DXxpbxaY+qeD/ALVeJJqnhNnnjYa6YRHEYkVw8iyE3MWxJFErRgHzd+15q+n/ALX3xV8QfC7xP8RPGXxW0v4UfFm+ibVdK+F+m/EO58LW8nhNDDHe6dZaNc2rRpqtxc24862E2YZVEoeF5Em/Zu/Zd8R/DX/gn1+0F4L8TfDnV9E/4TCbTNYj8PWngx0g1VPMtYF1CB9J8LtarHOkCM2lPoUt5B5UjXgCz5i+pfiJ4a8K/F7SNF0/xZ/wTp8VeKLDw2ksek22r6V8OL2HS1lcPKsCS64wiDuAzBANxGTk1jaV8FPhnoOjapptj/wTL1Cz0/XIo4NStYPDnw0jh1CNJFlRJkXWwsirIiOAwIDIrDkA1nCnanKD+1GMX52STfrK1301d7ySktJTXPGS+y7r7729P12tFuL+Af8Agn/+x54N+JXhFPC3if4V6TcXXjn4iaTbWkereCja28kel+Ib2+vAkUvhLRrdtunw38Mri4uXWN/IMFqjfZ09W+LjaJ4b/Z2/ZN0n/hNo/Asd94ehtNH0S3urGxj8VD/hL/DjJYx+bE821Yh56/YmjlAhDbigZT9W+GPhH8OvBNrq0Gi/8E0tW0iHxBYtpmqR2Xh/4a266laM6SNbzBNbAkiLxxsUbKlo1OMqMet+Gf2ovGfgrw5p+j6N+x78ctJ0jSbeOzsrGy1DwLb21nBGoSOKONPEAVEVQFCqAAAABitrq8GvsycvXmi4NdrJWaunduSatvjGLTb7pL0s0799bW0askmnfb4k+G/ws8Q+Jv2rfgr4k8O6FNp1h4s8WXPh/wASXFr+1F8Q9S1C7TTLO+uDY39rqFjbyxtauJZVtpsb3PlOEjneSvKviX8BfD/wz+Keq+OLHwfrfjTxR8TPEnxctr2PTtIW3bT7RNYutJlLXOi+FNV1i4LQ6huT7bP9mieNe3lxj9Fbr4qX198XbX4gT/sO/Fabx5ZWJ0y38SO3gBtXgtCWJt0ujr/nLES7HYG25Y8cmua+J+n+HvjbptjZ+NP+CefjLxdZ6bdXl/Zwa1p3w51CO0uLyXzruaNZddYJJPL+8kdcGR/mYk81nUTlFJdpJ+klZ/kntfpd7m1Oai7/AN6Ml/26pcvzTkvLS9lexxf/AART+Anhj4JeJtb1DwpDJZ6f8RPhh4I8XvaPo+h6c1lJdtrJ8k/2RpunwzlVVR50sBlfHLYCqv6BV8l/CPxr/wAM/wBxqc3gP9g/4leCZtaEI1F9Aj+H2mtfiFSkPmmHXl8zy1JVd2doJAwK7T/hsj4i/wDRp37QH/g38Ef/ADQ11YqtGrUc4qy6Lsu1+ttr7vdnPSp8qs/L8Elfyva9umx9AUV8/wD/AA2R8Rf+jTv2gP8Awb+CP/mho/4bI+Iv/Rp37QH/AIN/BH/zQ1zmh9AUV8//APDZHxF/6NO/aA/8G/gj/wCaGj/hsj4i/wDRp37QH/g38Ef/ADQ0AH/BNP8A5N18R/8AZVfiP/6m+u19AV8If8E+f2r/AB5oXwG1+C1/Zk+OGtRyfErx9cNcWeqeD1jjeXxjrMrwETa7G/mQu7QuQpjMkTmN5Iykje3/APDZHxF/6NO/aA/8G/gj/wCaGgD6Aor5/wD+GyPiL/0ad+0B/wCDfwR/80NH/DZHxF/6NO/aA/8ABv4I/wDmhoA+gKK+f/8Ahsj4i/8ARp37QH/g38Ef/NDR/wANkfEX/o079oD/AMG/gj/5oaAPoCivn/8A4bI+Iv8A0ad+0B/4N/BH/wA0NH/DZHxF/wCjTv2gP/Bv4I/+aGgD6Aor5/8A+GyPiL/0ad+0B/4N/BH/AM0NH/DZHxF/6NO/aA/8G/gj/wCaGgD6Aor5/wD+GyPiL/0ad+0B/wCDfwR/80NH/DZHxF/6NO/aA/8ABv4I/wDmhoAP+Cln/Juvhz/sqvw4/wDU30KvoCvh79t/9pnxr48+Ffg/StU/Z3+MXgqxuvip8PTJrOs6l4VlsbTb4z0V1DrZ6zcXB3sojXZC2GdS21Nzr9pf2vcf9Au//wC+4f8A45QBfoqh/a9x/wBAu/8A++4f/jlH9r3H/QLv/wDvuH/45QBfoqh/a9x/0C7/AP77h/8AjlH9r3H/AEC7/wD77h/+OUAX6Kof2vcf9Au//wC+4f8A45R/a9x/0C7/AP77h/8AjlAF+iqH9r3H/QLv/wDvuH/45R/a9x/0C7//AL7h/wDjlAF+iqH9r3H/AEC7/wD77h/+OUf2vcf9Au//AO+4f/jlAF+qFv8A8jPef9esH/oc1H9r3H/QLv8A/vuH/wCOVSg1WceIrpv7NvdxtoQV3Q5HzS8/fxzn17H2yAeB/s8eP9F+FPxP/bK8T+ItStdH0Dw98SLfUdRvrl9kNpbxeBfCrySMeyqqkn6V8sW//BW74meGvCHw08fG++H+o+EPErS6h4iPjHxHH4P0zw8mu3E0/h2znvV0652taafayfaAdrmS6t2LurKD9X/sweFNM8a/HH9rPT9Y02w1ayb4taZP9nvLdJ4jJF4M8JSxPtcEbkkRHU9VZFIwQDXmOg/sJeMrD9h39n/wTottdfDvxf4e8R6Rq/irUvD40k3+myQ2U0E13m4jntbiUAQxEtHMSoGAQoK5+97SL6c0F8pStO9+0Xe91y23s3bT3fZS7pSfzUW42t56ONmpcyaSlFXz/wBoj/gss/7N37K3hH4ratpPwr8SaJrmuXEFzd+Bvijo+t6RNp9sB562l5qMulPc3/8ArClvbW9xk2zIxQyK6+K/BT/g4l1rx18WfAfgvVfC/wAPbrWPEQ0z+0P7D+Ingy6R3MDRX0VqR4kZWle/ltVtoWbzjAZn8uVk219Aft4/s/8Ax+1X4XeDPBPw68TeNPiHqEl3dXV74l1q5GhmCY7Vtlvrvw/rXh6eK0USSbhbWN+xCBjEXRBJ87/D3/gnv+1N+yv4gsda03VNU8abvFN/qElnpGu+KLwxt9sMkVxNa6j4+s7O4tZk3MRL50+SFlilLO42wvK6yU/hck+vSyt00bu30aTXmsa6ao3h8Vmvvcnf1Ssv/AXurP3L9vj/AIKGfGr4ZfCX4+ah8OfAfgVbH4XahD4ZsdZu/GN1/buoapcWdhPAlppK6NcQzyvJqEMMcTXP7x+u0EV1y/tw/GXXLS40tfA/wk0nVfEnw51Px14O1rQ/FmreNtPu/sj2Sqs1nBpNnczI4vo3VbVpJJNhVVyymul+D37EzXf7WXxC+I3jWPWpIrfxq2ueENLfUYzpJaTQ9Lsm1NraIkvdK0FzBGbgt5S72jRDIZH4jwP+w67/ALYXiHT4fCXxK8N/CG38Pa9YRy3Xii2tbNp9TvNIuWg0RtPvDqNraF7G5keOfyQjTskQETCNYp/DCMtXKm2+lpeybs2tm6lrJWtbls23bSTXM5LRKSXe6c1snfaN730d27pJX8L1D9vj9qAfEa7tf+FnfAex1vT76LSbbwbc/DHUoZLsXLRNANQu/wC23sdL1qYI32HS7rU4WuEuovO8iRwsP3v+x7418cfEL4FWGrfEM6U3iS4u7xGNh4b1Dw6hgS5kSEvY38kk8Evlqu8ebLGzZaOSSNkdvzx+DX7AZ+HH7GNn8LdW/Zc/a4muF0K40vUrPQvjfbWXhi9nmWTzzHYp4uhhW2leR2Mf2ZFIdgY+SK+7/wDgnH+z1ffsv/sS/DXwfrC+II/EWneHdPXW4NX8RXWuSWl+LSFLiKOaeeYJCsiELFA4gQD92oB51p8vJNduW17Xd73ts9OW73+JJWVks6yanFd3K9tla1vJ35tP8Lbbep7dRRRWZQUUUUAfP/8AwVi/5RZftLf9kq8Uf+mi6r6Ar5//AOCsX/KLL9pb/slXij/00XVfQFABRRRQAUUUUAFFFFABRRRQAUUUUAFfP/xG/wCUpvwb/wCyVePP/Tv4Mr6Ar5/+I4z/AMFTfg3/ANkq8ef+nfwZQB85/tE/8FLPGWr+OPjMvwi17SdYTwLqdn4X0rSpDHDDPd6XDJq/iW7a6+y3DIi2Xl6ejlHSO64KZZSew+Fv/BWa/wDih+z3498eW6/s86xb+EfD0Wqtb+BfjPY+JbvTJpyFi/tFL630m1tIUy7u0t6hPkui5bFdZB+xfN4atv2nm0PwLoOmTeMtMbSPBbWcNnbs9m3h6ytTbRFSPs8JurcKY32KTErYwFaoNT/Z2+MXwW/Yn1XTdI+InxR+J3i6+0Cw0q30XULLQVfRz+7juPskmnTeH5Q6xlwJW1RWTYrozOMPhHn9nUi9+WFn/ekpqVurSai7a8vNa9rX2nyqrTlHa7uvKPJa62Tacotprms5W5m7fGtx/wAHPOoTeG7jVLfwj8Ok+1X02mWFpL8SPCBkjuPsMNvF53/FQCQW41gXRa58lYmsPIlBBYtX0X+03/wVY8Q/DjS/gTrGh6t8N/DVl8TrKG/k0zxJFBquoeJd+r6TY+RpUumatJbGRre/nulML32UiUbeHI+f7T/gl7+1dY6vqPja58RySapJoVqi6PY+NvHUt/NEL25b7IJZPHEQ+2pA8cjRPdmyEkjJHOcNcSfQ3j39kr45/tB/Dr4OzXWmeG7HUNL05NH8Up4l1a50vU7CCDX9I1CKaGO3uNbF1M0GlFCZdULM0yyNKGLIvXG0nGWz5rPtZRml98uVt7O6vdLXlleMuTVpJeru4Nv5Rurb3vazenI/C3/grl8Xr79s628P+LvhRdaF4K8YDS9M0SOXQ/HMbLciS9e+ltTN4Pge4mFuIJJI7h4II0hDLNhpmj4eX/guD8T4P2l/iN4Rjk+FN5beE7nx5Bb6Wllaf2hbJoVvqclnJP5XiKa+IkNlD5nnaVaRsJW8uXmNn9X8J/8ABPjxZYftafB6fXtH+KV/D4D1vUNd1Lxfb/GTxFf+HruH7LdQ2cS2OoazNeQ3LyPAZoFiltzGXRriVHeKuI/ab/ZN/aKt/Cnhey8E6L4+W1TxV8RdV1O18M+I3syw1LxF9s0meVbXxRoJfdbPMylrifyvMZXgDNlcaz9xcu7jNel1o7d007JpO7Wx1U7Od5Wspw08kpOS9JWjFtN6vrs/XP8AgkT/AMFGfF37eGv/ABAs/EupeAdYt/C2n6PeW1z4Zg06MJJeNfCWGU2Gv61CdotoyA80Eo3tuhAKM321Xyp/wTr8D/FDRvEM2o/E7wl4o0DVbH4beEPCt3qWuatp+oza/qdiNSkvrhJLa7uZGTfeRjzLjY7sXOCPmP1XXZjIwjVcadrLTTZ26/Pf8zjo83L72+n5K/3O6CiiiuU2CiiigD5//wCCaf8Aybr4j/7Kr8R//U312voCvn//AIJp/wDJuviP/sqvxH/9TfXa+gKACiiigAooooAKKKKACiiigAooooA+f/8AgpZ/ybr4c/7Kr8OP/U30KvoCvn//AIKWf8m6+HP+yq/Dj/1N9Cr6AoAKKKKACiiigAooooAKKKKACiiigAqhb/8AIz3n/XrB/wChzVfqhb/8jPef9esH/oc1AHx38GP2fPFvxM/at/aovtF+OnxU+Hdrb/ErT7d9P8P2Hhue2uXHgvwuxnc6hpN1KJCHVCEkWPbEmEDF2b1P/hjb4i/9HY/tAf8Ago8Ef/M9Vf8AZQ0qLXvjl+15Yztcxw3nxPtIJGt7iS2mVW8DeFVJSWNleNsHh0YMpwQQQDU1x/wTV+HcdvIy+JP2gMqpI/4vt43/APltWdSpyRc5bJXKtcd/wxt8Rf8Ao7H9oD/wUeCP/meo/wCGNviL/wBHY/tAf+CjwR/8z1Y3/BP298YfGP8A4JV/B+8h8a6pZ+NNX8GaXdnxHqSf2xcS3Hlxuz3AnYtcCTBWTLrIyu22SN9si+MfC/8Aa0b9ov8A4KH+BPDvxMl8O6F/wqqbWNO0HVNO+2N4f+IXikxC1mOm3E8KxLNZ2b3iS2ZmllSa6njR5xZyzHolTtXeH6q/zS3f32Vt22raXamV40/aS22+b2/V36JNvz+gP+GNviL/ANHY/tAf+CjwR/8AM9R/wxt8Rf8Ao7H9oD/wUeCP/merqvix+x94X+JvxFtfG1jeeIvA/jy08hG8R+F9QOn3eoQxOGW3voiGttQhC+Yix3kMwhE8rQ+VI28SeAf2otP+Lf7QviHwX4Ts/wC3tI8EwSQeJvEUNx/oWmatvj8vSozsKz3AjMsk4VwbbECuC02Ezjrp11+5a3v57a9bJXbVyWmvTT730/rpd6JM8/0n9mjxdr+uarpdj+2N8br3UtCkjh1K0gsfAkk+nvJGssazIvh8tGzRsrqGAJVgRwQa0v8Ahjb4i/8AR2P7QH/go8Ef/M9Xkvw81D4t+G/2/v2mNW8A2PgfxToNvregJqfhvVHuNM1S5P8AYNoTPaairSwb1UBVtprZVkZstdQKK+tfhJ8SP+Fr+BrXWX8P+JfC1xI8kFzpOvWX2W+sJo3MckbhWeKQBlO2WCSWGVcPHJIjK5I6xT8k/v8AzXmu6Ts9ByXK/wCv6vvo+za01PJP+GNviL/0dj+0B/4KPBH/AMz1H/DG3xF/6Ox/aA/8FHgj/wCZ6voCigR8/wD/AAxt8Rf+jsf2gP8AwUeCP/meo/4Y2+Iv/R2P7QH/AIKPBH/zPV9AUUAfCH/BTX9k/wAeeHP+Cbf7QeoXn7Tfxw16zsPhr4juJ9Mv9L8Hpa6iiaXcs0ErQaFFMI5ACrGKSOQBjtdWww9v/wCGNviL/wBHY/tAf+CjwR/8z1H/AAVi/wCUWX7S3/ZKvFH/AKaLqvoCgD5//wCGNviL/wBHY/tAf+CjwR/8z1H/AAxt8Rf+jsf2gP8AwUeCP/mer6AooA+f/wDhjb4i/wDR2P7QH/go8Ef/ADPUf8MbfEX/AKOx/aA/8FHgj/5nq+gKKAPn/wD4Y2+Iv/R2P7QH/go8Ef8AzPUf8MbfEX/o7H9oD/wUeCP/AJnq+gKKAPn/AP4Y2+Iv/R2P7QH/AIKPBH/zPUf8MbfEX/o7H9oD/wAFHgj/AOZ6voCigD5//wCGNviL/wBHY/tAf+CjwR/8z1H/AAxt8Rf+jsf2gP8AwUeCP/mer6AooA+f/wDhjb4i/wDR2P7QH/go8Ef/ADPVz+pf8E5fFGr/ABT0bxtcftRftASeJvD+lX+iWF5/Z3gwfZ7O+msprqLyx4f8tt8mn2bbmUsvk4UqGcN9QUUAfP8A/wAMbfEX/o7H9oD/AMFHgj/5nqP+GNviL/0dj+0B/wCCjwR/8z1fQFFAHz//AMMbfEX/AKOx/aA/8FHgj/5nqP8Ahjb4i/8AR2P7QH/go8Ef/M9X0BRQB8//APDG3xF/6Ox/aA/8FHgj/wCZ6j/hjb4i/wDR2P7QH/go8Ef/ADPV9AUUAfP/APwxt8Rf+jsf2gP/AAUeCP8A5nqP+GNviL/0dj+0B/4KPBH/AMz1fQFFAHz/AP8ADG3xF/6Ox/aA/wDBR4I/+Z6j/hjb4i/9HY/tAf8Ago8Ef/M9X0BRQB8//wDDG3xF/wCjsf2gP/BR4I/+Z6j/AIY2+Iv/AEdj+0B/4KPBH/zPV9AUUAfL/wANP+Ccvij4P+HLnSfDv7UX7QGnafearqWtyxf2d4Mm33moX09/eS5k8PsR5l1czybQdq79qhVCqOg/4Y2+Iv8A0dj+0B/4KPBH/wAz1fQFFAHz/wD8MbfEX/o7H9oD/wAFHgj/AOZ6j/hjb4i/9HY/tAf+CjwR/wDM9X0BRQB8/wD/AAxt8Rf+jsf2gP8AwUeCP/meo/4Y2+Iv/R2P7QH/AIKPBH/zPV9AUUAfP/8Awxt8Rf8Ao7H9oD/wUeCP/meo/wCGNviL/wBHY/tAf+CjwR/8z1fQFFAHz/8A8MbfEX/o7H9oD/wUeCP/AJnqP+GNviL/ANHY/tAf+CjwR/8AM9X0BRQB8/8A/DG3xF/6Ox/aA/8ABR4I/wDmeo/4Y2+Iv/R2P7QH/go8Ef8AzPV9AUUAfD37b/7M3jXwH8K/B+rap+0R8YvGtja/FT4eiTRtZ03wrFY3e7xnoqKXaz0a3uBsZhIuyZcsihtybkb7S/si4/6Cl/8A98Q//G68O/4KWf8AJuvhz/sqvw4/9TfQq+gKAKH9kXH/AEFL/wD74h/+N0f2Rcf9BS//AO+If/jdX6KAKH9kXH/QUv8A/viH/wCN0f2Rcf8AQUv/APviH/43V+igCh/ZFx/0FL//AL4h/wDjdH9kXH/QUv8A/viH/wCN1fooAof2Rcf9BS//AO+If/jdH9kXH/QUv/8AviH/AON1fooAof2Rcf8AQUv/APviH/43R/ZFx/0FL/8A74h/+N1fooAof2Rcf9BS/wD++If/AI3VKDS5z4iul/tK93C2hJbbDk/NLx9zHGPTufbG5VC3/wCRnvP+vWD/ANDmoA+L/hz+2Z8C/g/+0d+1r4V+JHxm+G/gG+134h2cyWmq+N7XQdQltJfBPhiHz4GM8U6AtHKqzREFXjbawZeOePjT9hNhg/tcZB6j/hrjxB/8vq+gP2OG2/tE/tZE8AfFWxyf+5H8KV53b/8ABYzwnpmp+A5Nc8KeKbXQ/iLNrL6Rf6Jo+qeJZZrO2vTa6ZP9n0+xmkB1NEnuIFOF8q3ch3PFT7rlyvd6evl5vey3ettmV73JzdF+Hn5LSze17K92r4er/tEfsW3HwP8ACnwv0n9qr4Y+Ffhr4Wsl0s+H9E+Lum2v9rWSRhIra4vvtB1AIhVWzBcxNJgpK0sbPG3cQft5fsSWvgHRfCkfxn/ZZTwv4be0l0jRx4u0H7Bpb2jrJatBD5uyJoXRGjKAFGRSuCAa6L4k/wDBUz4K/BvwT4Z8Q+MvFFz4D03xZrR0OxXxpplz4QvGkGzfP9k1ZLW5a2jaWFXmjjZE81WYhA7L5h8Nf+Dgb9l/4n6l4YsrX4jeH9PvPFR01YIdQ1/SYGs2vbOW623B+1kRNB5PkzKSSs8kUSh2cCtI805Nq7bkr9+Z6r563v03IlaMddlF+ltU/wD0lp97W6IqfG39qH9lP9oTxi1x4k/bf8Mx+E2jA/4RHQvjHo/h3TTKEKea13pz2+qSZDMTC960DEgmI7V2+ifDX/gon+xp8GPA2m+F/CHx2/Zl8LeG9HjMVjpWk+NtEs7OzQsWKxxRzBFBZmY4AyWJ6k1D+11/wVl+HP7KfhT4lTnTPH3ifWvhjAzarBp3gbxBPpNvOLaK6EM2rQafNZQ/uZonZmkIQON2K6C1/wCClHgHxBba5b6D4d+MGteJNH8P3XiS38OS/DXXdE1TXbW3eKOQWK6pa2kVxJvnhXasnBlUnA5qYfD7mqeumt9G76b6Xa8ttEOfxLn3WivpbZNa7a2v52b1Zxnw8/bq/ZB+GvxU8f8Ai6x/ae+CM2pfEa8s73Uop/iPorQQPbWcVpGIQsoZVMcSltzMSxJBAwB2v/D2L9ln/o5b9n//AMOHpH/yRXjlz/wWnvFsdV8RQfsy/HS6+Hfhu5l0zW/FMeoeFpLGwvEkjU7Zk1drWSzi/wBIFzeC4ENpJbskpUiUxfVf7O/xrf8AaC+F9t4mk8I+LPBDXFxPb/2X4iitVvFEUrRiUNazz28sMgXfHLFM6SIysCQacVzR5o7JL7un4Wa7pp7NMJPldpenzW/3Wafmmtzzf/h7F+yz/wBHLfs//wDhw9I/+SKP+HsX7LP/AEct+z//AOHD0j/5Ir6AopAfP/8Aw9i/ZZ/6OW/Z/wD/AA4ekf8AyRR/w9i/ZZ/6OW/Z/wD/AA4ekf8AyRX0BRQB8If8FNf+Cm37Nvj3/gm3+0HoWhftB/A/Wtb1r4a+I7DT9PsPHWl3N1f3Eul3KRQxRJOXkkd2VVRQSxIABJr2/wD4exfss/8ARy37P/8A4cPSP/kij/grF/yiy/aW/wCyVeKP/TRdV9AUAfP/APw9i/ZZ/wCjlv2f/wDw4ekf/JFH/D2L9ln/AKOW/Z//APDh6R/8kV9AUUAfP/8Aw9i/ZZ/6OW/Z/wD/AA4ekf8AyRR/w9i/ZZ/6OW/Z/wD/AA4ekf8AyRX0BRQB8/8A/D2L9ln/AKOW/Z//APDh6R/8kUf8PYv2Wf8Ao5b9n/8A8OHpH/yRX0BRQB8//wDD2L9ln/o5b9n/AP8ADh6R/wDJFH/D2L9ln/o5b9n/AP8ADh6R/wDJFfQFFAHz/wD8PYv2Wf8Ao5b9n/8A8OHpH/yRR/w9i/ZZ/wCjlv2f/wDw4ekf/JFfQFFAHz//AMPYv2Wf+jlv2f8A/wAOHpH/AMkUf8PYv2Wf+jlv2f8A/wAOHpH/AMkV9AV8/wDxG/5Sm/Bv/slXjz/07+DKAD/h7F+yz/0ct+z/AP8Ahw9I/wDkij/h7F+yz/0ct+z/AP8Ahw9I/wDkiuf/AGm/+CmWl/s3eIviFDJ4Wvtc0n4cjQba/vrF57iWS/1KZ3mtVtre3mlb7HpyDUJiiu4hkXEfO6uks/8Agpb8Kbr4Z+IvGFxc+NPD3hvw1pQ1e41Pxb4L1jwfp08TMqRJDe6xbWlrJJK8kaIgmyxde2SJ9pHlc76Lfy0vr201XdarQrklzqHWVred7bd9XbTZ6PVNEf8Aw9i/ZZ/6OW/Z/wD/AA4ekf8AyRR/w9i/ZZ/6OW/Z/wD/AA4ekf8AyRXjl3/wcVfso2trfXC/ErQ5rezSWRXj1fTt10qaTBqQ8uI3IlJfz/sqqyBvtcU0JAKFq9V+JX/BTjwP4Gs/h3qGj6P4g+IWgfESBLqDW/Cd7pGoabpUDahZad5s8zXyCVRdX8EZ+yC4IIkOMLk6OLUuV76fim/yTb7Ja2M+eLSkuqv+X+aS7t2Re/4exfss/wDRy37P/wD4cPSP/kij/h7F+yz/ANHLfs//APhw9I/+SKxfhr/wVJ8G/Ez9p7VvhtbeEvi5aPZ2Wlz2uo3fwy8UWqSzXs15EVuFm0xFs4U+zKRczusMnmSYYeS5rg1/4LsfCc/Gzxf4FOg+Km1PwZJ4jivHh1Xw7cTO2hxXUt2fsMWqNqMKOtnL5T3NrCj7o8sodSZk7K72s38oq7+5GnJK/L1uo/OWy+f+fY9W/wCHsX7LP/Ry37P/AP4cPSP/AJIo/wCHsX7LP/Ry37P/AP4cPSP/AJIqn+wX/wAFM/A//BQq98UW/g/TdQsZPCcFjc3bTa7oGsQul2bgRAS6PqN9Gkg+zSbopWjkUMh24YGvoyqnTlB2kZxkpK8T5/8A+HsX7LP/AEct+z//AOHD0j/5Io/4exfss/8ARy37P/8A4cPSP/kivoCipKPn/wD4exfss/8ARy37P/8A4cPSP/kij/h7F+yz/wBHLfs//wDhw9I/+SK+gKKAPn//AIexfss/9HLfs/8A/hw9I/8Akij/AIexfss/9HLfs/8A/hw9I/8Akij/AIJp/wDJuviP/sqvxH/9TfXa+gKAPn//AIexfss/9HLfs/8A/hw9I/8Akij/AIexfss/9HLfs/8A/hw9I/8AkivoCigD5/8A+HsX7LP/AEct+z//AOHD0j/5Io/4exfss/8ARy37P/8A4cPSP/kivoCigD5//wCHsX7LP/Ry37P/AP4cPSP/AJIo/wCHsX7LP/Ry37P/AP4cPSP/AJIr6AooA+f/APh7F+yz/wBHLfs//wDhw9I/+SKP+HsX7LP/AEct+z//AOHD0j/5Ir6AooA+f/8Ah7F+yz/0ct+z/wD+HD0j/wCSKP8Ah7F+yz/0ct+z/wD+HD0j/wCSK+gKKAPh79t//gof+z/8avhX4P8ADPg345fB3xb4k1H4qfD1rTStG8Z6bf310I/GeiyyFIYpmdtkaO7YBwqMxwATX2l/wlWl/wDQSsP/AAIT/GvDv+Cln/Juvhz/ALKr8OP/AFN9CrtbD9pqz1b9rLVPhHZ+GfE9zqGg+HbPxJqWuL9jXSbKK7muobaFt1wLlpnazuD+7t2RQg3OpYAnW39bXB6Jyeyt+LSX4tI7z/hKtL/6CVh/4EJ/jR/wlWl/9BKw/wDAhP8AGuD1n9pmz8P/ALV2g/Ce88M+J4b7xNoF7r+ma7/obaRdJZy28dzb8XBulmT7Xbn57dY2EnyuxVgPS6FqlJbO/wCDaf4poOtih/wlWl/9BKw/8CE/xo/4SrS/+glYf+BCf41dnZ1hcxqryBSVVm2hj2BODj64NfKemf8ABS3WPPvrfVPhH4n0u+8O6RYav4jtmmlZtDje21ae98xmt1TbCdKaKCRmRLt7mAq0aMHqZSSTk9lb8f07vZbuxUYuTUY7vb+u/Zbt6K7Pp/8A4SrS/wDoJWH/AIEJ/jR/wlWl/wDQSsP/AAIT/GvnzW/+Cjth4e8D+KNcbwH4o1z+w/GY8IWWn6NeWH2zUWOlQakblmvZ7W3gVYpJAwac48rILFgosaF/wU28A6wui3U+l+LNL0W6sLG58Q61d2tv/ZngO5vYUmttP1edJ2W3umSRC6x+akAkhMzxLPbtLcYuWi/u/wDk0VKP3pq3m0t9DNzilzPbX/yWTi/uaf3N7anvf/CVaX/0ErD/AMCE/wAaP+Eq0v8A6CVh/wCBCf414/8AtG/8FG/gh+y7Jr+m+Lvi58KtB8XaHp73p8Oav4wsNN1KY+SZYo/JlkEimQbdp2HIYEA15v8Asx/8FdPAv7VXxH+H/h3wrqnwz1q48b6JaapcW+j/ABL0e/1TRZ5LKe5uLWTT/MS6kNu0KRuyRk/v0bYAk3lqn77ahra1/nzW/wDSXft1tdXqp7iTnpe/4W/+SVu/S9nb6o/4SrS/+glYf+BCf40f8JVpf/QSsP8AwIT/ABrwX4sf8FI/Cfwk/apn+GU3h/x54i/sjQhquu6n4V8H614nXQrmaRBZ2U8WmWVyY5J4RcTAyMm1IUOGEqkdT4L/AG1fDPxe+Dnibxj4B0Hx541HhLUm0jUNDj8O3Gh62l0gheWIWmrCzfdHFOkhBwWUEIHfCEi048y21fok+Vt9lfq7LVPZpskmpcr30Xq2rpLvp27Pqmeo/wDCVaX/ANBKw/8AAhP8apQeJdOHiK6k/tCy2NbQqG89cEhpcjOe2R+YrG+Bf7Q/hH9pHwrdax4Q1Oe9h0+8k07ULW80+50zUdJukCs1vd2d1HHc2s210fy5o0YpJG4BV1Y9Nb/8jPef9esH/oc1NprcL32Pmb4QfC+2+NXjf9szwnfalrWk6fr3xNsrS8n0m5+y3bW7eCfCfmxJLgtH5ke6Mum2RVdijxuFdfk/Qv2WodO/4Jtfs4XXhm1vda8UeONf8KWyx3Pi+98KiC2tNNu0t7GDUtNha6sreLM8gMSPIZLibJIkOPoX4MeLvjbon7Vv7VEXw/8Ah78K/E2kt8StPe4ufEHxBv8AQ7mK4/4QvwuGjSGDRbxXjCCNhIZFJZ3XYAoZ/U/+Fj/tTf8ARG/2f/8Aw8mr/wDzMVn7P3lL+9CT8+SXNbXvsnbS70d2nfP7kod1NLy5ouLffs2rq9l1Sa+P/wDgpjqF18Hv2PPAnwx8XaRq1r4g8SXmosNA0r4r6t41utftsbXskN74j8N6xrEsxuIwttGt4q48sREtEa+Xfg5428afAH4z+G/G3xb/AOFnaStn4mv9LtNQ8R+MrrSftFrb6ihm0mO81D4mi2DZijzayQXW4RbmW6VGc/rF/wALH/am/wCiN/s//wDh5NX/APmYo/4WP+1N/wBEb/Z//wDDyav/APMxWtGTp1lW3d7/AJL8lb0bIrJTpey6f8O/zafql11PGfDn7NusftbftB/HTwnr1xoK/BVfiZDqPinSXjkn1DxZPFoGgvbWD9IorAOqyzcyNcbViKpGZDJyvg/wrrHjT9sC8+DEfxH+GHj++8D/AA48T+Go7u8gHiW503TLq80D7Na+ItO86PddGJbiH55QLpIRMygtJEPpD/hY/wC1N/0Rv9n/AP8ADyav/wDMxR/wsf8Aam/6I3+z/wD+Hk1f/wCZioirKEekYcj837P2alfyTdl0Wierbrmd3LrzJry97ma+b3+WmiS/L/4QeI/C+vfAbSfH2vftsfsl6N8Zo9GS4tNX1jTlh8ZeEJIo38nTrbyfElta2cUfEb2UNhDaT4P2i1m3yB/07/4JUx+IJ/8Agn/8L9U8SSeCGvvE2gWevrH4V8Ljw7Ywi9gjunDWyzyxtO00srySxiJJHkJEMfQy/wDCx/2pv+iN/s//APh5NX/+Zij/AIWP+1N/0Rv9n/8A8PJq/wD8zFaxqNRkn9q1uyte9v8AFeN/8KRnUinKLjolf53ta/8Ahs7f4mfQFFfP/wDwsf8Aam/6I3+z/wD+Hk1f/wCZij/hY/7U3/RG/wBn/wD8PJq//wAzFZlH0BRXz/8A8LH/AGpv+iN/s/8A/h5NX/8AmYo/4WP+1N/0Rv8AZ/8A/Dyav/8AMxQAf8FYv+UWX7S3/ZKvFH/pouq+gK+EP+Cmvj79pK8/4Jt/tBw678J/gfpuiS/DXxGmoXdh8V9Uvbq1tzpdyJZIoH8OwpNIqbisbSxhiAC6A7h7f/wsf9qb/ojf7P8A/wCHk1f/AOZigD6Aor5//wCFj/tTf9Eb/Z//APDyav8A/MxR/wALH/am/wCiN/s//wDh5NX/APmYoA+gKK+f/wDhY/7U3/RG/wBn/wD8PJq//wAzFH/Cx/2pv+iN/s//APh5NX/+ZigD6Aor5/8A+Fj/ALU3/RG/2f8A/wAPJq//AMzFH/Cx/wBqb/ojf7P/AP4eTV//AJmKAPoCivn/AP4WP+1N/wBEb/Z//wDDyav/APMxR/wsf9qb/ojf7P8A/wCHk1f/AOZigD6Aor5//wCFj/tTf9Eb/Z//APDyav8A/MxR/wALH/am/wCiN/s//wDh5NX/APmYoA+gK+f/AIj8/wDBU34N/wDZKvHn/p38GUf8LH/am/6I3+z/AP8Ah5NX/wDmYrgPEfhL9qbxB+1P4N+Jn/Cr/wBn+H/hEfCuveGP7N/4W3q7fa/7Tu9GufP83/hGhs8r+yNuzY2/7RncuzDgHkWjfsc+G/Ad7+2Fqjar4m1688JnVNQt21a8S4+1anqHhOzNzqUuI1/0jY80SBNkMUVxJHHEi7Qs3gzRfEn7Iv8AwTw8YeJPG2lt4V0rVvCmmWtjqMf7ROveIZEmmCxRSZ1270WDTFVpUYraalA8g/dq4Ijz9Lf8LH/am/6I3+z/AP8Ah5NX/wDmYo/4WP8AtTf9Eb/Z/wD/AA8mr/8AzMVnGnaMo9JRhH5R5/nqpWSvZJJaq1tJ1OaUJdYuT9XLkd+28bvS7bb0d2/xrsNG8fRx3WqTaL8XrD4Y6baW3ieKS81DWbPSbS4k1W6Ya4DJ8UURYZLhDMuofaWhfiddqsJ5fr39o2zt/wBqr4Zfs167pOi/EzxXby6PDp1nd6Hc6l4n06e7g8TeH/POqXWlahqdpNbtBaXk2NQ1C5QeV80pmjyPtf8A4WP+1N/0Rv8AZ/8A/Dyav/8AMxR/wsf9qb/ojf7P/wD4eTV//mYraMrJJ62k396lH77S0f8AdWhjJNzc12S+7lf3Nq7Xm+9z8+/Bf7JHhXVf25f2f9Fk8Ifsj+FvF1p4m1DUNV8G2/7PsPhvxFaWdpZXmbqSNdbuVmtmkiAt7yLfbrOYZFeUxmI8b+1H4p0P9nv+z9ZmuNMNx488YfF2K8/4S/xZcS6TCqa/cae8Vnp9/wCK9D023kltb+4V5LfzLg5LKmTJIP02/wCFj/tTf9Eb/Z//APDyav8A/MxR/wALH/am/wCiN/s//wDh5NX/APmYrOonKKj5NPz5lZ/La6bd7We5tTmoyvb7SkvLlUkvmnK6atZrbqvBv+CNPijwf408Z65q3hXxFLrl9qnwt8C33iO2k8bal4qOhapN/bE0tkJNQvLue1VFeMi2aX5A4bGXLN9818//APCx/wBqb/ojf7P/AP4eTV//AJmKP+Fj/tTf9Eb/AGf/APw8mr//ADMV04msqtRzStfpvby9O3kc9OnyK3p+CS/G12fQFFfP/wDwsf8Aam/6I3+z/wD+Hk1f/wCZij/hY/7U3/RG/wBn/wD8PJq//wAzFYGh9AUV8/8A/Cx/2pv+iN/s/wD/AIeTV/8A5mKP+Fj/ALU3/RG/2f8A/wAPJq//AMzFAB/wTT/5N18R/wDZVfiP/wCpvrtfQFfIH7NPhL9qb9nf4dal4f8A+FX/ALP+sf2h4r8R+J/P/wCFt6vb+X/a+uX2reRt/wCEabPk/bfK35G/yt+1N2xe/wD+Fj/tTf8ARG/2f/8Aw8mr/wDzMUAfQFFfP/8Awsf9qb/ojf7P/wD4eTV//mYo/wCFj/tTf9Eb/Z//APDyav8A/MxQB9AUV8//APCx/wBqb/ojf7P/AP4eTV//AJmKP+Fj/tTf9Eb/AGf/APw8mr//ADMUAfQFFfP/APwsf9qb/ojf7P8A/wCHk1f/AOZij/hY/wC1N/0Rv9n/AP8ADyav/wDMxQB9AUV8/wD/AAsf9qb/AKI3+z//AOHk1f8A+Zij/hY/7U3/AERv9n//AMPJq/8A8zFAH0BRXz//AMLH/am/6I3+z/8A+Hk1f/5mKP8AhY/7U3/RG/2f/wDw8mr/APzMUAH/AAUs/wCTdfDn/ZVfhx/6m+hVy2mWPiHUv+Clfx6g8Kapo2i+IpPhj4MFjfatpcmp2VtJ/aPiP5pbaO4t3lXGRtWaM5IOeMHh/wBt/wAbftAar8K/B9v4y+Gfwd0Hw3J8VPh79rvtG+JmpatfQkeM9FMey2l0G1STdIEVszptVmYbyoRvpmP9nnRoP2hrj4qRaTNB41vNGh0C5uYfE+oR2d3ZwySyQpLZKRaytG88xSR4jInmuAwBIo3eu2v5Nfn/AJjk/wB3KK3fL+E4y/JP5njOt6f4n0r/AIKK/s62/jLWNB17xJH4D8cfbL/RdIl0mxnP2vw+V8u2lubp48JtBDTvkgngEKNv4w+BP2ntb/bCW98EePfhj4f+Ff8AwjjJZxav4Ou9Zlt9R86PzRdJFq9kXLIA0MqblVROjxowSSb0u8/Z60bUf2hLH4pXGkzXHjTS9In0KyuJfE2oPZ2dpM8ckyxWRP2RHkaGLfKsQkYRICxCgDuftGqf8+dh/wCBj/8AxqiPwwvvHm9PelN7eSkn5SXlqXsnFbaeuln+at5r1PLPhr4K+P2k+NLO48afEz4P6/4ajEn2yw0X4Z6jpF9PlGCeXdS69dJHh9rHdA+5QVG0kMv41fAP9hO+0vV/2d3aP4O6P4g+LEOp/wBixxapoC+IL2G40DVVN1LBbeF7TUjAjOnnSPql2EJXf57FXH70faNU/wCfOw/8DH/+NUfaNU/587D/AMDH/wDjVZyp3lzP0+Wv6/hp6aQquEJRju9n2dmr2+flfufmxpWr6H8VPgv4kl0Gzh+L3hzXfjdNp8Nv4V1Wzmi8Sxf8IglpNHa3Us8Vucssqb2mQKUYEhhivmmH9m6Xx18a/hrY6x8Of2b9W+I2l+FdQ1XxBoGrfs+2t54l1vy7ayS51G8sX1y3uL0Ndm6WKeeCzMskUzQRzrLEz/t79o1T/nzsP/Ax/wD41R9o1T/nzsP/AAMf/wCNVdtH3agr/wCCnGCa23au/LRWtd48qTSWy5rLylUlN6+kktLaq7vol8neK7TxB8SbXVn0XTde8D/CP4U/Di8s7OxXSbnw3a+J9Ru9MQosenSbXSysbU7BHKgC3FwUA32jVD+yMnjX4f8Agb4A6hYt4l1bwD8R/hZoPh2/+xZuR4L1S208zW2opC29FhuUmkhlfyyqyW1mWBV3K/W/2jVP+fOw/wDAx/8A41R9o1T/AJ87D/wMf/41V396bf2+W/fT2t9Vbf2j5f5eWO9hcukEvsqVvn7O33Omm9feu09G0/g74i+CfDf7Ld9feD/2a/FXxJ8RftEWzG41ewsLk+IbDXdSmU3AuPGDXH+g2P2jKu1wJLK+kt4Vgs2ZI4ravo74IeH9B/YC/ZabUPil448KaTd3F7Pr3jPxVqd7HpWl3Or6hcGSdxJcOFihM0qwwo7ZEaQpyRXsf2jVP+fOw/8AAx//AI1R9o1T/nzsP/Ax/wD41UptRst9vJLT3YrpHRO210mVK0p8z23829feb6y1avvZtdT5q8WftPeK/wBtDS/+EW+A+neJtH0HWoQup/FPWNGudK07SrOTOZNHiukjl1O6kjw0FxEjWKh1lM8pUW8v0X4b0mPQL37DDJdTRWWnWsCSXNw9xM6qZVBeRyXdjjJZiWY5JJJq19o1T/nzsP8AwMf/AONVSgn1H/hIrr/RbLf9mhyPtTYA3S458v69uw654aslZdd/67LWy6Xe7bYndu76bf13dlf00tseJ/soRXk/xy/a8j0+e2tdQf4n2i201xA1xDDKfA3hXYzxq6F1DYJUOhIBAZc5E03w8/amiiZv+Fyfs/naCcf8Kb1f/wCaeqv7LEOoXPxr/a+j0m6s7LVJPibaLZ3F3bNdW8Ex8DeFdjyRLJG0iBsEosiFgCAyk5FuT4a/tTSxsp+MnwAwwwf+LN6v/wDNPWFVT5Zez3tp2vrb+rF9Fct/st/tJeNPjp/wT8+HvxS/4RnS/EHjTxT4asNautF025/sy3uJJVR50t2naQIQpcxpLJtZgqvKgJkXl/Bn7Zd9+0z+1h4N8G+B18R+HbTwjZXut/E3TNY0T7LfaUzRm20/SrjzUYK808ktysts7JLHp4eOWSCZWk2vhx+zp8TP2bP2Pvhr8I/hz4i8HSX3hfRINBvvGOt2M5+wrBCqrc2+lRsVuJJGUr5cl7EsW4OWn2GF4fDf/BMT4d+E/EPhzxTYXfia1+Jmh6sdYvvHsN3FH4i8TySPG13BqMqxCK4tbhYkja2MQhiRIhbpbmGEx9lRweIk18F3b57Nf3Undp6tpJaXIl/CtH4v07N93ayttdt/Zv2nxY8H/FzT/iLa+Ivh/wCLvDuoaPJ5EGp+DvFFh5dpJGrgPNY6jap9otZijSMwuIr2OQxxIi22XlPa3PxV8P2nxUs/BLagreKL7S5tajsEikdks4pY4WmkZVKRgySqqB2UyFZNgby5Nvn/AMbYfj54m8Yto/w8l+E3g3w35Yk/4SrXft/iDUi2whoV0eIWcSfOVInbUZAAhBgbf8un+zd+yvof7N9vrl5DqeueLfGHiy5W88R+LPEE0c+sa7Iu4RCRoo44ooYlYpFbwRxQRKW2RqXctjT212u/V3/JJ669NIqzUoue+m+norW+9tPp1+J3Vn4L4S/bNuvg5+3F+0FpfjDSfiVqPgTTdX0RLbX7K0bWNF8MGTRbWR4ZYIJJLq1jZjJM9wLYWqZLSzITz9a+C/GujfEjwlpuv+HdW0zXtC1i3S7sNR066S6tL6FxuSWKWMlHRgQQykgg8GvOPgh8B9Y+Gv7Rfxo8XX1xps2m/EbVNLvdNigkdp4EttMt7SQTBkCqxkiYrtZgVIJIOQPSPC/g3R/BFlcW+i6Vpuj295dz6hPFZWyW6TXM8jSzzsEADSSSOzu5+ZmYsSSSaI/Ck+y/LW/+em2zd2VLe6/r0/y13eqVkaVFFFBIUUUUAfP/APwVi/5RZftLf9kq8Uf+mi6r6Ar5/wD+CsX/ACiy/aW/7JV4o/8ATRdV9AUAFFFFABRRRQAUUUUAFFFFABRRRQAUUUUAFFFFABRRRQAUUUUAFFFFABRRRQAUUUUAFFFFABRRRQAUUUUAFFFFABRRRQAUUUUAfP8A/wAFLP8Ak3Xw5/2VX4cf+pvoVfQFfP8A/wAFLP8Ak3Xw5/2VX4cf+pvoVfQFABRRRQAUUUUAFFFFABRRRQAUUUUAFULf/kZ7z/r1g/8AQ5qv1Qt/+RnvP+vWD/0OagD5++Jn7Efwht/E/wARPiL4k174heDI7+5TWPEmpad8XPEvhfTP9H061tzd3CWuowWyFLa2hRpSoOyFdx4zUPgX9hD4O/FHwfp3iLwz49+NXiLw/rEC3NhqemftA+NLyzvYm+7JFLHrBR1PZlJBp3/BVL/lGd+0x/2I+s/+muuH/wCCgvxX+OHgDx78B7XwB4f8GzeH9U8cabaC4u/H9/o1zrEradfs9jd28OlzotodgfzPNlJeNMw/xKRfvRi/tShFf9vO1/y/LVtDnG0eb+7Uk/8AtxRf43fpvtc9MP8AwTU+HIH/ACMn7QH/AIfbxv8A/LavPvhP+z3+z78cr3S7fwr8QP2gNWk1rSptbs9nxp+IEazWUV0bUz7n1NQqNMGEe4jzVVnj3opYeq/tnQ/EjXv2IPF0Xhi90Hwb44vfD0ovb9Lua9h0EGAm6ks38qJriVF3iFpEhBbY7BQDGfzj+PP7JGk2Pw9/Zh8ZeNvC/wANdd1rXpbfRdJtbz4S33xLsdG8PWvhm6NnYrpVkIbubfIHu5NmI4Zp/wDlolukjTGV5VL7QcU/PnU0rPycU+qkuZJp2FKyjC28+a3lyuDd15qTXSzs3oz7w8W/sLfBvwBB5uvfED40aLH9nnu99/8AtB+M7ZfJgTzJ5MvrA+SNPmduirycDmq2l/sYfA7XNZj06y+JfxevNQmuZLKO1g/aI8YyTPPHClxJEEGsEmRYZI5SoGQjqxG0gn4F/wCCnvhj4a6R8DPgn4ctPFXg34czRabc3knh/S7ZvhfBDA91IkskfhvVPGWgGzhvUk1C1lZorqaSKacCaHKE+Wf8ErPiF4P8W/tteAPFGrfEzRNHutcvhbpp3/CzA6pclguyMH4jX19NJetbadC8U2n3Ucv2S1XyQimQ6UIqdV05aK7W2t07Xt59t7/jNaXJSVSPa79LXVvPz2tquh+qHiX9iD4PeEPGPhvw/qHjD9oCDV/F009vpVuPjh47kN08EDTy5ZdVKoFjRjucqCcKCWZQbXjP9gz4P/Djw5NrHiLx38a9B0m2aNJr7Uf2gfGlrbRNI6xxhpJNYCgs7qoBPLMAOSBXwn/wUo/Yltdf+L3xC+I+l/CH4Xab430jQNV8UWugT+CfDdzpsmn28rzXOseJb250++a6ub+aDbb21l5VwI1kDXURlnkh+wLb9njxJ+yt/wAE8/Hx8MeIfhrdpJoFzrUPhqT4Z2dj4DsIBFLPc2lrpFnLBciO6jYq5ur65O8l+VJiPPKtGOHliJ6KKu/vfXfZPpdNSjbmi0b+xbrxoR15nZfdF/f70etmmpJ8rudFrv7EHwe8N+PNB8MXnjH9oCPXvE8d1Nptovxw8dyNcR2yo07krqpVFTzIwWcqN0iKCWYAw+Mf2L/gz4A8YeE9A1bxp+0Baat44vZtO0SD/hd/jyT7bPFay3cibl1QqmIIJXy5UHbgEsQD+ZP7TPw7+G/xh/aj+JOqeIfFH7J/hGXUE0Ew6d4x8YeDvD97DA/hjR2X7LDqvhLWLpbUbisbR3axgqwWNWVnf6q8X/Bbwr+038OP2M9QsLzx/o02l/Du68RQ2+h/EPVrP7Dpdt4eMEcomsZLWN5Rc39mhuY4YpJUdlOIi0VbYj9xRnVn9mzaW9uWUnbzSj89W7W1zoL20qcIfbSafS75bX8ve1fku+ntOrfBn9l3QPjVH8Nr747+OLL4izSxwR+Fp/2m/FcetPJIgkjQWba2JizxsrqAmSpBGQc10Pwn/Y/+A/x58Nzax4G+KPxY8aaPb3UljLfaF+0V4w1G2iuI8eZC0kOssokXcNyk5GRkc18y/sxaxqXiH4a6bqGtXV9faxffGH4cXF9c3sjS3NxO/g3w40jys5LNIzElixJJJJ5r6y/4J8f8jV+0X/2V7U//AE3aZW3sWpzpS3ipfNpYd/8AuZr/ALdT62WDrJwpVI7TUH6cyrP8PZL732KfxL/4JYfCnxh8OPEGk6xqXxw1jSdU025s76wv/jb40urW9gkiZJIZYpNVKSRupKsjAqwJBBBIra/4dp/Dr/oY/wBoD/w+3jf/AOW1e4+Kv+RY1L/r1l/9ANX6xNj5/wD+Hafw6/6GP9oD/wAPt43/APltR/w7T+HX/Qx/tAf+H28b/wDy2r6AooA+f/8Ah2n8Ov8AoY/2gP8Aw+3jf/5bUf8ADtP4df8AQx/tAf8Ah9vG/wD8tq+gKKAPn/8A4dp/Dr/oY/2gP/D7eN//AJbUf8O0/h1/0Mf7QH/h9vG//wAtq+gKKAPn/wD4dp/Dr/oY/wBoD/w+3jf/AOW1H/DtP4df9DH+0B/4fbxv/wDLavoCigD5/wD+Hafw6/6GP9oD/wAPt43/APltR/w7T+HX/Qx/tAf+H28b/wDy2r6AooA+f/8Ah2n8Ov8AoY/2gP8Aw+3jf/5bVVm/4Ju/D1NdtoR4l/aA8uSCV2H/AAvXxvyVaMD/AJi3+0fzr6Kqhcf8jPZ/9es//ocNAHh3/DtP4df9DH+0B/4fbxv/APLaj/h2n8Ov+hj/AGgP/D7eN/8A5bV9AUUAfP8A/wAO0/h1/wBDH+0B/wCH28b/APy2o/4dp/Dr/oY/2gP/AA+3jf8A+W1fQFFAHz//AMO0/h1/0Mf7QH/h9vG//wAtqP8Ah2n8Ov8AoY/2gP8Aw+3jf/5bV9AUUAfP/wDw7T+HX/Qx/tAf+H28b/8Ay2o/4dp/Dr/oY/2gP/D7eN//AJbV9AUUAfP/APw7T+HX/Qx/tAf+H28b/wDy2o/4dp/Dr/oY/wBoD/w+3jf/AOW1fQFFAHz/AP8ADtP4df8AQx/tAf8Ah9vG/wD8tqP+Hafw6/6GP9oD/wAPt43/APltX0BRQB866L/wTd+Ht3Zu0niX9oBmW4mQH/hevjccLK6j/mLdgBVr/h2n8Ov+hj/aA/8AD7eN/wD5bV7j4c/5B8n/AF9XH/o56v0AfP8A/wAO0/h1/wBDH+0B/wCH28b/APy2o/4dp/Dr/oY/2gP/AA+3jf8A+W1fQFFAHz//AMO0/h1/0Mf7QH/h9vG//wAtqP8Ah2n8Ov8AoY/2gP8Aw+3jf/5bV9AUUAfP/wDw7T+HX/Qx/tAf+H28b/8Ay2o/4dp/Dr/oY/2gP/D7eN//AJbV9AUUAfP/APw7T+HX/Qx/tAf+H28b/wDy2o/4dp/Dr/oY/wBoD/w+3jf/AOW1fQFFAHz/AP8ADtP4df8AQx/tAf8Ah9vG/wD8tqP+Hafw6/6GP9oD/wAPt43/APltX0BRQB856z/wTR+GMU+j3l1ffGLWv7H1zS9XtrXWfjB4u1ax+1Wl9Bc20j21zqckEvlzxRyKJEYBo1OOBXvv/COW/wDz0v8A/wADpv8A4ujxH/yD4/8Ar6t//RyVfoAof8I5b/8APS//APA6b/4uj/hHLf8A56X/AP4HTf8AxdX6KAKH/COW/wDz0v8A/wADpv8A4uj/AIRy3/56X/8A4HTf/F1fooAof8I5b/8APS//APA6b/4uj/hHLf8A56X/AP4HTf8AxdX6KAKH/COW/wDz0v8A/wADpv8A4uj/AIRy3/56X/8A4HTf/F1fooAof8I5b/8APS//APA6b/4uj/hHLf8A56X/AP4HTf8AxdX6KAKH/COW/wDz0v8A/wADpv8A4uqUGgQHxFdJ5l7tW2hI/wBMmzy0vfdnt07c+prcqhb/APIz3n/XrB/6HNQB5d+1F8JYf2of2a/ir8N/7SvNC/4T/RrzQl1H+yZrv7B9pslh80wgpv27t2wuhIHUZBrt/hzfaloXgTSbPxJfQ6xrtrbJFe3um6BdadaXMoGC8dvJJO8Sn+600hH941taP/yENV/6+l/9ExVfo2v52/C/+f8AVkEtbX6Xt87X/wDSV93qYfiRtL8XeHb/AEnULW/uNP1S2ktLmL7JcJ5sUilHXKqCMqSMggjsa52D4UeC7Y+BfL0W/X/hWqlfDn7u9/4lwNo9kf8Arp/o8jp+83dd33gDXfUULS9utr+dr2v6Xdu133YPW1+l7eV7X++yv3sux5Z8Tv2efAXxn+IGl+IvFGn+Ktam0hI1h0q41PV/7AmaKQyxSz6SJBp9xNHIRIks1u8iPHEysGijK5I/ZE+Gdr4g8Oapp+n+N9Bu/C+wWv8AYniHXtJiu0Sdp0jvY7aeNL+JZJJSsd2syKJpVChZHDe00ULS1ujuvJvqvMJa3v10+XY8j+OP7Mnw9/aF8R6frWv2fjSx17S7Z7KDV/DWua54Z1I2zsHa2kutNmt5pYN6h/KkdkDDcFDc1jW/7FHwtk+GmseDdXs/iH4x8L+ILq1utR03xd4s8R+JoLs28gkjiYahcz/uCwHmQf6qYDbIjrxXutFJJJWW3/Bv+evrqO7bv1/4Fvy09D5vi/4J1fCLT18nSpPjV4a02Mn7NpXh74neM9F0nTkzkQ2tlaX8Vtawr0SGCNI0UBVVQAK0NX/YQ+E/iDwRqGg39v8AE++ttWsY9Lvb248b+KZdWurNJbiUWr6g12btoGa5m3xGXZICiuGWOML9AUU3qrME2ndHgdz+wF8Abv4zR/EaT4U6C3j+31Kz1a38RnRpv7UtJ7S2itbdYrjb5kUKQwRr5CMsLYYshZmJ0f2Rfgtqn7POl+OpPEniOHxVrXjzxdd+Krq403wvdaRa2xmht4RAkMk9y3yrbqS5lO4seFHFe10U4ycW2uqa+TcW/v5I672ilsQ4ppJra1vkpJfJKUrLbXYw/EmvwTeHdQRY73c1tIBus5lH3T1JXA+pq7/wkdv/AM87/wD8AZv/AIijxV/yLGpf9esv/oBq/SKKH/CR2/8Azzv/APwBm/8AiKP+Ejt/+ed//wCAM3/xFX6KAKH/AAkdv/zzv/8AwBm/+Io/4SO3/wCed/8A+AM3/wARV+igCh/wkdv/AM87/wD8AZv/AIij/hI7f/nnf/8AgDN/8RV+igCh/wAJHb/887//AMAZv/iKP+Ejt/8Annf/APgDN/8AEVfooAof8JHb/wDPO/8A/AGb/wCIo/4SO3/553//AIAzf/EVfooAof8ACR2//PO//wDAGb/4iqU+vwHxFav5d7tW2mB/0ObPLRdtue3Xtx6ityqFx/yM9n/16z/+hw0AH/CR2/8Azzv/APwBm/8AiKP+Ejt/+ed//wCAM3/xFX6KAKH/AAkdv/zzv/8AwBm/+Io/4SO3/wCed/8A+AM3/wARV+igCh/wkdv/AM87/wD8AZv/AIij/hI7f/nnf/8AgDN/8RV+igCh/wAJHb/887//AMAZv/iKP+Ejt/8Annf/APgDN/8AEVfooAof8JHb/wDPO/8A/AGb/wCIo/4SO3/553//AIAzf/EVfooAof8ACR2//PO//wDAGb/4ij/hI7f/AJ53/wD4Azf/ABFX6KAMPQNfgisZAY73/j5nPFnM3WZz2X9O3Srv/CR2/wDzzv8A/wAAZv8A4ijw5/yD5P8Ar6uP/Rz1foAof8JHb/8APO//APAGb/4ij/hI7f8A553/AP4Azf8AxFX6KAKH/CR2/wDzzv8A/wAAZv8A4ij/AISO3/553/8A4Azf/EVfooAof8JHb/8APO//APAGb/4ij/hI7f8A553/AP4Azf8AxFX6KAKH/CR2/wDzzv8A/wAAZv8A4ij/AISO3/553/8A4Azf/EVfooAof8JHb/8APO//APAGb/4ij/hI7f8A553/AP4Azf8AxFX6KAMPX9fglsYwI73/AI+YDzZzL0mQ91/Tv0q7/wAJHb/887//AMAZv/iKPEf/ACD4/wDr6t//AEclX6AKH/CR2/8Azzv/APwBm/8AiKP+Ejt/+ed//wCAM3/xFX6KAKH/AAkdv/zzv/8AwBm/+Io/4SO3/wCed/8A+AM3/wARV+igCh/wkdv/AM87/wD8AZv/AIij/hI7f/nnf/8AgDN/8RV+igCh/wAJHb/887//AMAZv/iKP+Ejt/8Annf/APgDN/8AEVfooAof8JHb/wDPO/8A/AGb/wCIo/4SO3/553//AIAzf/EVfooAof8ACR2//PO//wDAGb/4iqUGvwDxFdP5d7ta2hA/0ObPDS9tue/Xvz6GtyqFv/yM95/16wf+hzUAf//Z;" parent="1" vertex="1">
                    <mxGeometry x="60.83" y="147.5" width="483.33" height="145" as="geometry"/>
                </mxCell>
                <mxCell id="HUhGPtKaDw3Hp0X3ekXW-1" value="【業務日報アプリ】ワイヤーフレーム" style="text;html=1;align=center;verticalAlign=middle;whiteSpace=wrap;rounded=0;fillColor=#0050ef;fontColor=#ffffff;strokeColor=#001DBC;" parent="1" vertex="1">
                    <mxGeometry width="230" height="30" as="geometry"/>
                </mxCell>
            </root>
        </mxGraphModel>
    </diagram>
</mxfile>